<?xml version="1.0" encoding="UTF-8" standalone="no"?>
<!-- Created with Inkscape (http://www.inkscape.org/) -->

<svg
   xmlns:dc="http://purl.org/dc/elements/1.1/"
   xmlns:cc="http://creativecommons.org/ns#"
   xmlns:rdf="http://www.w3.org/1999/02/22-rdf-syntax-ns#"
   xmlns:svg="http://www.w3.org/2000/svg"
   xmlns="http://www.w3.org/2000/svg"
   xmlns:sodipodi="http://sodipodi.sourceforge.net/DTD/sodipodi-0.dtd"
   xmlns:inkscape="http://www.inkscape.org/namespaces/inkscape"
   width="744.09448819"
   height="1052.3622047"
   id="svg2"
   version="1.1"
   inkscape:version="0.48.4 r9939"
   sodipodi:docname="dada-logo.svg">
  <defs
     id="defs4" />
  <sodipodi:namedview
     id="base"
     pagecolor="#ffffff"
     bordercolor="#666666"
     borderopacity="1.0"
     inkscape:pageopacity="0.0"
     inkscape:pageshadow="2"
     inkscape:zoom="0.7"
     inkscape:cx="121.82323"
     inkscape:cy="693.31712"
     inkscape:document-units="px"
     inkscape:current-layer="layer1"
     showgrid="true"
     inkscape:window-width="1680"
     inkscape:window-height="998"
     inkscape:window-x="-8"
     inkscape:window-y="-8"
     inkscape:window-maximized="1">
    <inkscape:grid
       type="xygrid"
       id="grid3773"
       empspacing="5"
       visible="true"
       enabled="true"
       snapvisiblegridlinesonly="true"
       units="mm"
       spacingx="1mm"
       spacingy="1mm" />
  </sodipodi:namedview>
  <metadata
     id="metadata7">
    <rdf:RDF>
      <cc:Work
         rdf:about="">
        <dc:format>image/svg+xml</dc:format>
        <dc:type
           rdf:resource="http://purl.org/dc/dcmitype/StillImage" />
        <dc:title></dc:title>
      </cc:Work>
    </rdf:RDF>
  </metadata>
  <g
     inkscape:label="Layer 1"
     inkscape:groupmode="layer"
     id="layer1">
    <path
       sodipodi:type="arc"
       style="fill:#d45500;fill-opacity:1;stroke:#000000;stroke-width:1;stroke-linejoin:bevel;stroke-miterlimit:4;stroke-opacity:1;stroke-dasharray:none;stroke-dashoffset:0"
       id="path3839"
       sodipodi:cx="478.34647"
       sodipodi:cy="255.11809"
       sodipodi:rx="53.149616"
       sodipodi:ry="53.149605"
       d="m 531.4953,255.40718 a 53.149616,53.149605 0 1 1 7.6e-4,-0.24506"
       sodipodi:start="0.005439288"
       sodipodi:end="6.2840138"
       sodipodi:open="true"
       transform="matrix(0.81734222,0,0,0.83213646,-264.7721,101.38946)" />
    <g
       id="g3892"
       transform="translate(82.223356,46.54061)">
      <path
         transform="matrix(0.39793956,0,0,0.41700408,-210.8735,160.93602)"
         sodipodi:open="true"
         sodipodi:end="6.2840138"
         sodipodi:start="0.005439288"
         d="m 620.07846,219.78138 c -0.0532,9.78443 -8.02821,17.67313 -17.81264,17.61991 -9.78443,-0.0532 -17.67313,-8.02821 -17.61991,-17.81264 0.0532,-9.78443 8.02821,-17.67313 17.81264,-17.61991 9.75254,0.0531 17.62824,7.97827 17.62016,17.73095"
         sodipodi:ry="17.716536"
         sodipodi:rx="17.716536"
         sodipodi:cy="219.68501"
         sodipodi:cx="602.36218"
         id="path3894"
         style="fill:#ffffff;fill-opacity:1;stroke:#000000;stroke-width:2.02451277;stroke-linejoin:bevel;stroke-miterlimit:4;stroke-opacity:1;stroke-dasharray:none;stroke-dashoffset:0"
         sodipodi:type="arc" />
      <path
         sodipodi:type="arc"
         style="fill:none;stroke:#000000;stroke-width:2.02451277;stroke-linejoin:bevel;stroke-miterlimit:4;stroke-opacity:1;stroke-dasharray:none;stroke-dashoffset:0"
         id="path3896"
         sodipodi:cx="602.36218"
         sodipodi:cy="219.68501"
         sodipodi:rx="17.716536"
         sodipodi:ry="17.716536"
         d="m 611.18502,235.04839 c -8.48496,4.87271 -19.31349,1.94441 -24.18621,-6.54054 -3.10529,-5.4073 -3.13932,-12.04891 -0.0896,-17.48775"
         sodipodi:start="1.0495054"
         sodipodi:end="3.6526345"
         sodipodi:open="true"
         transform="matrix(0.39793956,0,0,0.41700408,-208.44505,158.58383)" />
    </g>
    <g
       id="g3898"
       transform="translate(113.11621,46.004896)">
      <path
         transform="matrix(0.39793956,0,0,0.41700408,-210.8735,160.93602)"
         sodipodi:open="true"
         sodipodi:end="6.2840138"
         sodipodi:start="0.005439288"
         d="m 620.07846,219.78138 c -0.0532,9.78443 -8.02821,17.67313 -17.81264,17.61991 -9.78443,-0.0532 -17.67313,-8.02821 -17.61991,-17.81264 0.0532,-9.78443 8.02821,-17.67313 17.81264,-17.61991 9.75254,0.0531 17.62824,7.97827 17.62016,17.73095"
         sodipodi:ry="17.716536"
         sodipodi:rx="17.716536"
         sodipodi:cy="219.68501"
         sodipodi:cx="602.36218"
         id="path3900"
         style="fill:#ffffff;fill-opacity:1;stroke:#000000;stroke-width:2.02451277;stroke-linejoin:bevel;stroke-miterlimit:4;stroke-opacity:1;stroke-dasharray:none;stroke-dashoffset:0"
         sodipodi:type="arc" />
      <path
         sodipodi:type="arc"
         style="fill:none;stroke:#000000;stroke-width:2.02451277;stroke-linejoin:bevel;stroke-miterlimit:4;stroke-opacity:1;stroke-dasharray:none;stroke-dashoffset:0"
         id="path3902"
         sodipodi:cx="602.36218"
         sodipodi:cy="219.68501"
         sodipodi:rx="17.716536"
         sodipodi:ry="17.716536"
         d="m 611.18502,235.04839 c -8.48496,4.87271 -19.31349,1.94441 -24.18621,-6.54054 -3.10529,-5.4073 -3.13932,-12.04891 -0.0896,-17.48775"
         sodipodi:start="1.0495054"
         sodipodi:end="3.6526345"
         sodipodi:open="true"
         transform="matrix(0.39793956,0,0,0.41700408,-208.44505,158.58383)" />
    </g>
    <g
       id="g3904"
       transform="translate(81.866213,77.433467)">
      <path
         transform="matrix(0.39793956,0,0,0.41700408,-210.8735,160.93602)"
         sodipodi:open="true"
         sodipodi:end="6.2840138"
         sodipodi:start="0.005439288"
         d="m 620.07846,219.78138 c -0.0532,9.78443 -8.02821,17.67313 -17.81264,17.61991 -9.78443,-0.0532 -17.67313,-8.02821 -17.61991,-17.81264 0.0532,-9.78443 8.02821,-17.67313 17.81264,-17.61991 9.75254,0.0531 17.62824,7.97827 17.62016,17.73095"
         sodipodi:ry="17.716536"
         sodipodi:rx="17.716536"
         sodipodi:cy="219.68501"
         sodipodi:cx="602.36218"
         id="path3906"
         style="fill:#ffffff;fill-opacity:1;stroke:#000000;stroke-width:2.02451277;stroke-linejoin:bevel;stroke-miterlimit:4;stroke-opacity:1;stroke-dasharray:none;stroke-dashoffset:0"
         sodipodi:type="arc" />
      <path
         sodipodi:type="arc"
         style="fill:none;stroke:#000000;stroke-width:2.02451277;stroke-linejoin:bevel;stroke-miterlimit:4;stroke-opacity:1;stroke-dasharray:none;stroke-dashoffset:0"
         id="path3908"
         sodipodi:cx="602.36218"
         sodipodi:cy="219.68501"
         sodipodi:rx="17.716536"
         sodipodi:ry="17.716536"
         d="m 611.18502,235.04839 c -8.48496,4.87271 -19.31349,1.94441 -24.18621,-6.54054 -3.10529,-5.4073 -3.13932,-12.04891 -0.0896,-17.48775"
         sodipodi:start="1.0495054"
         sodipodi:end="3.6526345"
         sodipodi:open="true"
         transform="matrix(0.39793956,0,0,0.41700408,-208.44505,158.58383)" />
    </g>
    <g
       id="g3888"
       transform="translate(111.50907,78.147753)">
      <path
         sodipodi:type="arc"
         style="fill:#ffffff;fill-opacity:1;stroke:#000000;stroke-width:2.02451277;stroke-linejoin:bevel;stroke-miterlimit:4;stroke-opacity:1;stroke-dasharray:none;stroke-dashoffset:0"
         id="path3853"
         sodipodi:cx="602.36218"
         sodipodi:cy="219.68501"
         sodipodi:rx="17.716536"
         sodipodi:ry="17.716536"
         d="m 620.07846,219.78138 c -0.0532,9.78443 -8.02821,17.67313 -17.81264,17.61991 -9.78443,-0.0532 -17.67313,-8.02821 -17.61991,-17.81264 0.0532,-9.78443 8.02821,-17.67313 17.81264,-17.61991 9.75254,0.0531 17.62824,7.97827 17.62016,17.73095"
         sodipodi:start="0.005439288"
         sodipodi:end="6.2840138"
         sodipodi:open="true"
         transform="matrix(0.39793956,0,0,0.41700408,-210.8735,160.93602)" />
      <path
         transform="matrix(0.39793956,0,0,0.41700408,-208.44505,158.58383)"
         sodipodi:open="true"
         sodipodi:end="3.6526345"
         sodipodi:start="1.0495054"
         d="m 611.18502,235.04839 c -8.48496,4.87271 -19.31349,1.94441 -24.18621,-6.54054 -3.10529,-5.4073 -3.13932,-12.04891 -0.0896,-17.48775"
         sodipodi:ry="17.716536"
         sodipodi:rx="17.716536"
         sodipodi:cy="219.68501"
         sodipodi:cx="602.36218"
         id="path3870"
         style="fill:none;stroke:#000000;stroke-width:2.02451277;stroke-linejoin:bevel;stroke-miterlimit:4;stroke-opacity:1;stroke-dasharray:none;stroke-dashoffset:0"
         sodipodi:type="arc" />
    </g>
    <rect
       style="fill:#552200;fill-opacity:1;stroke:none;stroke-width:1;stroke-linejoin:bevel;stroke-miterlimit:4;stroke-opacity:1;stroke-dasharray:none;stroke-dashoffset:0"
       id="rect3930"
       width="21.259842"
       height="88.58268"
       x="191.33858"
       y="272.83463" />
    <path
       sodipodi:open="true"
       sodipodi:end="3.1505731"
       sodipodi:start="0.005439288"
       transform="matrix(0.59976256,0,0,0.49544187,-0.27468709,309.52482)"
       d="m 354.32942,104.57571 a 17.715517,8.8582678 0 1 1 -35.43006,-0.12773"
       sodipodi:ry="8.8582678"
       sodipodi:rx="17.715517"
       sodipodi:cy="104.52753"
       sodipodi:cx="336.61417"
       id="path3819"
       style="fill:#552200;stroke:#000000;stroke-width:1.75922190999999990;stroke-linejoin:bevel;stroke-miterlimit:4;stroke-opacity:1;stroke-dasharray:none;stroke-dashoffset:0"
       sodipodi:type="arc" />
    <path
       sodipodi:open="true"
       sodipodi:end="3.1505731"
       sodipodi:start="0.005439288"
       transform="matrix(0.59976256,0,0,0.49544187,-0.27468709,283.04779)"
       d="m 354.32942,104.57571 a 17.715517,8.8582678 0 1 1 -35.43006,-0.12773"
       sodipodi:ry="8.8582678"
       sodipodi:rx="17.715517"
       sodipodi:cy="104.52753"
       sodipodi:cx="336.61417"
       id="path3821"
       style="fill:none;stroke:#000000;stroke-width:1.75922191;stroke-linejoin:bevel;stroke-miterlimit:4;stroke-opacity:1;stroke-dasharray:none;stroke-dashoffset:0"
       sodipodi:type="arc" />
    <path
       sodipodi:open="true"
       sodipodi:end="3.1505731"
       sodipodi:start="0.005439288"
       transform="matrix(0.59976256,0,0,0.49544187,-0.27468709,274.24155)"
       d="m 354.32942,104.57571 a 17.715517,8.8582678 0 1 1 -35.43006,-0.12773"
       sodipodi:ry="8.8582678"
       sodipodi:rx="17.715517"
       sodipodi:cy="104.52753"
       sodipodi:cx="336.61417"
       id="path3823"
       style="fill:none;stroke:#000000;stroke-width:1.75922191;stroke-linejoin:bevel;stroke-miterlimit:4;stroke-opacity:1;stroke-dasharray:none;stroke-dashoffset:0"
       sodipodi:type="arc" />
    <path
       sodipodi:open="true"
       sodipodi:end="3.1505731"
       sodipodi:start="0.005439288"
       transform="matrix(0.59976256,0,0,0.49544187,-0.27468709,256.72503)"
       d="m 354.32942,104.57571 a 17.715517,8.8582678 0 1 1 -35.43006,-0.12773"
       sodipodi:ry="8.8582678"
       sodipodi:rx="17.715517"
       sodipodi:cy="104.52753"
       sodipodi:cx="336.61417"
       id="path3825"
       style="fill:none;stroke:#000000;stroke-width:1.75922191;stroke-linejoin:bevel;stroke-miterlimit:4;stroke-opacity:1;stroke-dasharray:none;stroke-dashoffset:0"
       sodipodi:type="arc" />
    <path
       sodipodi:type="arc"
       style="fill:none;stroke:#000000;stroke-width:1.75922191;stroke-linejoin:bevel;stroke-miterlimit:4;stroke-opacity:1;stroke-dasharray:none;stroke-dashoffset:0"
       id="path3805"
       sodipodi:cx="336.61417"
       sodipodi:cy="104.52753"
       sodipodi:rx="17.715517"
       sodipodi:ry="8.8582678"
       d="m 354.32942,104.57571 a 17.715517,8.8582678 0 1 1 -35.43006,-0.12773"
       transform="matrix(0.59976256,0,0,0.49544187,-0.27468709,265.70901)"
       sodipodi:start="0.005439288"
       sodipodi:end="3.1505731"
       sodipodi:open="true" />
    <g
       style="stroke-width:1.75922191;stroke-miterlimit:4;stroke-dasharray:none"
       id="g3815"
       transform="matrix(0.59976256,0,0,0.49544187,-0.27408054,226.14018)">
      <path
         sodipodi:nodetypes="cc"
         inkscape:connector-curvature="0"
         id="path3807"
         d="m 318.89764,95.669269 0,177.165351"
         style="fill:none;stroke:#000000;stroke-width:1.75922191;stroke-linecap:butt;stroke-linejoin:miter;stroke-miterlimit:4;stroke-opacity:1;stroke-dasharray:none" />
      <path
         sodipodi:nodetypes="cc"
         inkscape:connector-curvature="0"
         id="path3809"
         d="m 354.33071,95.669269 0,177.165351"
         style="fill:none;stroke:#000000;stroke-width:1.75922191;stroke-linecap:butt;stroke-linejoin:miter;stroke-miterlimit:4;stroke-opacity:1;stroke-dasharray:none" />
    </g>
    <rect
       style="fill:#338000;fill-opacity:1;stroke:#000000;stroke-opacity:1"
       id="rect3753"
       width="70.866074"
       height="35.433002"
       x="159.44882"
       y="237.40155" />
    <path
       style="fill:#44aa00;stroke:#000000;stroke-width:1px;stroke-linecap:butt;stroke-linejoin:miter;stroke-opacity:1"
       d="m 159.44882,237.40155 17.71653,-17.71653 70.86615,0 -17.71654,17.71653 z"
       id="path3914"
       inkscape:connector-curvature="0" />
    <path
       style="fill:#225500;stroke:#000000;stroke-width:1px;stroke-linecap:butt;stroke-linejoin:miter;stroke-opacity:1"
       d="m 230.31496,272.83462 17.71654,-17.71653 0,-35.43307 -17.71654,17.71653 z"
       id="path3916"
       inkscape:connector-curvature="0" />
  </g>
</svg>
